<?xml version="1.0" encoding="UTF-8" standalone="no"?>
<svg xmlns:ffdec="https://www.free-decompiler.com/flash" xmlns:xlink="http://www.w3.org/1999/xlink" ffdec:objectType="shape" height="20.5px" width="14.95px" xmlns="http://www.w3.org/2000/svg">
  <g transform="matrix(1.0, 0.0, 0.0, 1.0, 7.5, 10.25)">
    <path d="M0.2 7.2 L-1.1 8.4 -0.25 5.95 -0.1 5.8 Q2.05 1.9 1.25 -2.4 1.05 -3.45 0.15 -4.2 -3.6 -4.8 -6.85 -6.45 -8.0 -6.9 -7.15 -8.15 -5.5 -10.0 -3.1 -10.25 L0.6 -9.55 Q4.55 -8.35 6.15 -4.7 6.9 -3.0 7.05 -1.15 L7.1 -0.9 Q7.65 2.5 7.35 6.1 7.3 6.8 7.4 7.3 L7.3 8.65 Q6.95 9.6 5.85 10.25 L6.0 8.7 6.1 7.7 6.6 6.1 6.9 2.9 Q6.9 -0.5 5.7 -3.6 L5.6 -3.9 Q4.45 -7.25 0.15 -8.85 -4.2 -10.45 -6.45 -7.45 -5.95 -6.4 -4.9 -6.3 -1.95 -6.15 0.4 -4.9 L1.5 -3.95 Q2.0 -3.4 2.8 -0.85 3.6 1.65 2.0 4.55 L0.25 7.15 0.2 7.2" fill="#000000" fill-rule="evenodd" stroke="none"/>
    <path d="M0.2 7.2 L0.25 7.15 2.0 4.55 Q3.6 1.65 2.8 -0.85 2.0 -3.4 1.5 -3.95 L0.4 -4.9 Q-1.95 -6.15 -4.9 -6.3 -5.95 -6.4 -6.45 -7.45 -4.2 -10.45 0.15 -8.85 4.45 -7.25 5.6 -3.9 L5.7 -3.6 Q6.9 -0.5 6.9 2.9 L6.6 6.1 6.1 7.7 6.0 8.7 5.2 8.7 3.35 8.45 1.55 8.0 Q0.75 7.8 0.2 7.2" fill="#29a09f" fill-rule="evenodd" stroke="none"/>
  </g>
</svg>
