<?xml version="1.0" encoding="UTF-8" standalone="no"?>
<svg xmlns:ffdec="https://www.free-decompiler.com/flash" xmlns:xlink="http://www.w3.org/1999/xlink" ffdec:objectType="shape" height="25.95px" width="34.8px" xmlns="http://www.w3.org/2000/svg">
  <g transform="matrix(1.0, 0.0, 0.0, 1.0, 17.4, 12.95)">
    <path d="M-16.35 -3.9 L-14.95 -4.55 -12.0 -4.8 Q-10.0 -4.65 -9.25 -3.55 -8.6 -2.6 -8.3 -1.35 -7.05 4.4 -1.4 7.75 L1.75 9.35 Q10.2 12.8 15.45 8.6 15.75 6.7 14.25 5.9 13.5 5.0 11.85 6.1 L10.0 7.5 Q6.9 9.0 4.7 8.1 1.35 6.8 -1.3 4.4 L-1.4 4.3 Q-5.6 0.4 -5.65 -3.55 L-5.4 -5.5 Q-4.7 -8.15 -8.3 -10.8 -10.6 -12.15 -14.8 -11.45 L-15.25 -11.4 -16.4 -11.15 Q-14.55 -12.5 -12.8 -12.85 -9.9 -13.25 -7.2 -12.05 -3.25 -10.55 -3.35 -6.5 L-3.2 -3.55 Q-2.8 -0.8 -1.4 1.45 0.75 4.85 5.2 7.0 8.0 6.8 9.85 5.1 12.7 2.45 15.6 5.0 18.75 7.75 16.35 11.0 L14.2 11.9 11.55 12.65 Q6.6 13.55 1.8 12.0 0.1 11.4 -1.4 10.6 -5.6 8.35 -8.25 4.15 -9.25 2.45 -9.45 0.7 -9.85 -2.45 -12.2 -3.55 L-13.55 -4.0 Q-13.65 -3.75 -14.55 -3.85 L-17.4 -3.35 -16.35 -3.9" fill="#000000" fill-rule="evenodd" stroke="none"/>
    <path d="M-15.25 -11.4 L-14.8 -11.45 Q-10.6 -12.15 -8.3 -10.8 -4.7 -8.15 -5.4 -5.5 L-5.65 -3.55 Q-5.6 0.4 -1.4 4.3 L-1.3 4.4 Q1.35 6.8 4.7 8.1 6.9 9.0 10.0 7.5 L11.85 6.1 Q13.5 5.0 14.25 5.9 15.75 6.7 15.45 8.6 10.2 12.8 1.75 9.35 L-1.4 7.75 Q-7.05 4.4 -8.3 -1.35 -8.6 -2.6 -9.25 -3.55 -10.0 -4.65 -12.0 -4.8 L-14.95 -4.55 -16.35 -3.9 -16.75 -4.9 -17.0 -6.85 Q-17.1 -7.8 -16.7 -8.7 L-16.0 -10.3 -15.25 -11.4" fill="#33cccc" fill-rule="evenodd" stroke="none"/>
  </g>
</svg>
