<?xml version="1.0" encoding="UTF-8" standalone="no"?>
<svg xmlns:ffdec="https://www.free-decompiler.com/flash" xmlns:xlink="http://www.w3.org/1999/xlink" ffdec:objectType="shape" height="22.5px" width="20.85px" xmlns="http://www.w3.org/2000/svg">
  <g transform="matrix(1.0, 0.0, 0.0, 1.0, 30.2, 6.85)">
    <path d="M-11.7 15.15 L-17.45 13.8 -20.25 12.7 -25.5 9.55 -27.05 8.65 -28.8 6.65 Q-30.1 4.95 -30.2 2.9 -30.3 0.8 -29.5 -1.0 -28.75 -2.8 -27.8 -3.65 L-26.0 -5.5 -24.35 -6.75 Q-23.3 -7.1 -22.1 -6.2 -20.95 -5.3 -21.3 -4.5 L-22.35 -2.7 Q-23.05 -1.7 -24.45 -0.6 L-25.45 1.3 -25.75 2.6 -25.7 3.6 -25.55 4.1 Q-25.2 4.9 -24.15 5.55 L-10.35 12.2 -10.3 12.2 -10.35 12.3 -10.3 12.2 Q-9.85 12.45 -9.35 12.65 L-10.35 12.3 -16.55 9.95 -18.25 9.25 -22.9 7.2 -24.6 6.5 -25.7 5.4 Q-26.35 4.55 -26.15 1.85 -26.0 -0.6 -24.85 -1.65 L-22.45 -3.9 Q-22.0 -4.55 -22.0 -5.15 -22.0 -5.85 -22.8 -6.0 L-24.35 -6.15 -25.35 -5.35 -26.5 -4.1 -27.8 -2.55 Q-28.6 -1.65 -29.3 0.15 -30.05 1.9 -29.65 3.55 -29.3 5.8 -27.5 7.15 L-26.35 8.0 -20.65 11.6 -19.9 12.0 -16.95 13.3 -16.75 13.4 -11.45 14.65 -10.65 14.85 -11.2 15.25 -11.7 15.15 -11.45 14.65 -11.7 15.15" fill="#000000" fill-rule="evenodd" stroke="none"/>
    <path d="M-11.45 14.65 L-16.75 13.4 -16.95 13.3 -19.9 12.0 -20.65 11.6 -26.35 8.0 -27.5 7.15 Q-29.3 5.8 -29.65 3.55 -30.05 1.9 -29.3 0.15 -28.6 -1.65 -27.8 -2.55 L-26.5 -4.1 -25.35 -5.35 -24.35 -6.15 -22.8 -6.0 Q-22.0 -5.85 -22.0 -5.15 -22.0 -4.55 -22.45 -3.9 L-24.85 -1.65 Q-26.0 -0.6 -26.15 1.85 -26.35 4.55 -25.7 5.4 L-24.6 6.5 -22.9 7.2 -18.25 9.25 -16.55 9.95 -10.35 12.3 -11.45 14.65" fill="#217e7d" fill-rule="evenodd" stroke="none"/>
    <path d="M-11.7 15.15 L-11.45 14.65 -10.35 12.3 -10.3 12.2 -10.35 12.2 M-11.7 15.15 L-12.05 15.65" ffdec:has-small-stroke="true" ffdec:original-stroke-width="0.05" fill="none" stroke="#ff0000" stroke-linecap="round" stroke-linejoin="round" stroke-width="1.0"/>
  </g>
</svg>
