<?xml version="1.0" encoding="UTF-8" standalone="no"?>
<svg xmlns:ffdec="https://www.free-decompiler.com/flash" xmlns:xlink="http://www.w3.org/1999/xlink" ffdec:objectType="shape" height="227.35px" width="199.65px" xmlns="http://www.w3.org/2000/svg">
  <g transform="matrix(1.0, 0.0, 0.0, 1.0, 96.05, 120.2)">
    <path d="M14.55 -52.4 L-3.5 -53.6 25.4 -66.95 43.7 -40.55 27.1 -49.6 12.95 -3.05 11.05 -1.55 10.9 -2.3 11.15 0.55 10.5 -1.3 7.45 -3.15 4.75 -3.95 3.65 -4.1 3.4 -4.1 1.9 -4.25 -0.35 -4.0 13.95 -50.25 14.6 -52.4 14.55 -52.4 M-8.55 23.15 L-52.0 46.9 -52.15 47.0 -40.0 59.6 -69.55 50.05 -65.25 19.35 -59.3 36.8 -53.35 33.45 -15.0 12.1 -12.45 10.7 -12.25 12.8 -11.4 15.45 -10.1 17.9 -9.4 18.75 -9.1 19.05 -8.3 20.05 -6.1 21.8 -8.55 23.15" fill="#000000" fill-rule="evenodd" stroke="none"/>
    <path d="M12.95 -3.05 L14.05 -2.15 16.2 0.4 16.2 0.45 17.75 3.35 18.75 6.5 19.05 9.8 18.7 13.1 17.7 16.25 16.1 19.15 14.0 21.7 11.4 23.8 8.45 25.35 5.2 26.3 1.9 26.65 -1.45 26.35 -4.65 25.4 -5.15 25.15 -5.2 25.1 -7.6 23.85 -8.55 23.15 -6.1 21.8 -8.3 20.05 -9.1 19.05 -9.4 18.75 -10.1 17.9 -11.4 15.45 -12.25 12.8 -12.45 10.7 -15.0 12.1 -15.25 9.9 -14.95 6.6 -14.0 3.45 -12.4 0.5 -10.25 -2.05 -7.65 -4.2 -4.7 -5.75 -1.45 -6.75 0.5 -6.95 -0.35 -4.0 1.9 -4.25 3.4 -4.1 3.65 -4.1 4.75 -3.95 7.45 -3.15 10.5 -1.3 11.15 0.55 11.15 -0.9 11.05 -1.55 12.95 -3.05" fill="#333333" fill-rule="evenodd" stroke="none"/>
    <path d="M-66.1 -44.95 L-42.35 -65.1 -12.9 -75.85 18.5 -75.9 47.85 -65.2 49.4 -63.95 70.65 -45.95 71.35 -45.35 71.5 -45.25 86.5 -18.6 91.25 11.3 85.35 40.85 69.7 66.55 46.25 85.55 17.8 95.65 -12.4 95.8 -40.9 85.95 -64.45 67.15 -80.15 41.5 -86.05 11.9 -81.25 -18.15 -66.1 -44.95 M14.55 -52.4 L13.95 -50.25 -0.35 -4.0 0.5 -6.95 -1.45 -6.75 -4.7 -5.75 -7.65 -4.2 -10.25 -2.05 -12.4 0.5 -14.0 3.45 -14.95 6.6 -15.25 9.9 -15.0 12.1 -53.35 33.45 -59.25 36.6 -65.2 19.2 -65.25 19.35 -69.55 50.05 -40.0 59.6 -39.95 59.4 -52.0 46.9 -8.55 23.15 -7.6 23.85 -5.2 25.1 -5.15 25.15 -4.65 25.4 -1.45 26.35 1.9 26.65 5.2 26.3 8.45 25.35 11.4 23.8 14.0 21.7 16.1 19.15 17.7 16.25 18.7 13.1 19.05 9.8 18.75 6.5 17.75 3.35 16.2 0.45 16.2 0.4 14.05 -2.15 12.95 -3.05 27.1 -49.6 43.7 -40.55 43.65 -40.65 25.4 -67.05 -3.5 -53.7 -3.5 -53.6 14.55 -52.4" fill="#e3e3e3" fill-rule="evenodd" stroke="none"/>
    <path d="M71.85 -62.5 L85.7 -46.85 95.85 -28.75 101.9 -9.05 103.6 11.4 100.95 31.65 94.15 50.9 83.5 68.25 69.5 83.1 52.8 94.8 34.1 102.9 14.1 107.05 -6.3 107.15 -26.3 103.2 -45.1 95.3 -61.85 83.7 -75.9 68.95 -86.6 51.65 -93.4 32.4 -96.05 12.05 -94.3 -8.5 -88.2 -28.3 -77.95 -46.5 -63.95 -62.25 -46.9 -74.8 -27.45 -83.55 -6.6 -88.0 14.75 -88.05 35.55 -83.6 54.9 -74.95 71.85 -62.5 M49.4 -63.95 L47.8 -65.3 18.45 -76.0 -12.9 -75.95 -42.3 -65.2 -66.05 -45.1 -66.1 -44.95 -81.25 -18.15 -86.05 11.9 -80.15 41.5 -64.45 67.15 -40.9 85.95 -12.4 95.8 17.8 95.65 46.25 85.55 69.7 66.55 85.35 40.85 91.25 11.3 86.5 -18.6 71.5 -45.25 70.65 -45.95 49.4 -63.95" fill="#5a4b9a" fill-rule="evenodd" stroke="none"/>
    <path d="M58.75 -74.05 L58.45 -73.6 71.85 -62.5 54.9 -74.95 35.55 -83.6 14.75 -88.05 -6.6 -88.0 -27.45 -83.55 -46.9 -74.8 -63.95 -62.25 -77.95 -46.5 -70.65 -56.65 -60.55 -68.05 -60.85 -68.5 -25.1 -90.0 -24.95 -89.75 -7.4 -93.5 11.5 -93.5 30.0 -89.6 37.4 -86.25 37.7 -86.7 58.75 -74.05" fill="#c6c2e0" fill-rule="evenodd" stroke="none"/>
    <path d="M37.7 -86.7 L18.5 -98.2 17.45 -99.0 21.95 -105.4 22.15 -105.6 22.25 -105.75 28.5 -111.55 35.6 -115.9 43.7 -118.9 52.0 -120.2 60.35 -119.85 68.45 -117.85 76.0 -114.3 83.05 -109.0 88.55 -102.8 92.75 -95.6 95.55 -87.2 96.6 -78.45 95.85 -69.95 95.7 -69.25 93.25 -61.35 90.3 -55.55 89.3 -55.95 86.85 -57.2 58.75 -74.05 37.7 -86.7" fill="url(#gradient0)" fill-rule="evenodd" stroke="none"/>
    <path d="M-60.85 -68.5 L-76.7 -59.0 -83.6 -55.65 -84.95 -55.25 -88.25 -61.55 -90.75 -70.25 -91.4 -78.85 -90.25 -87.55 -87.55 -95.45 -83.35 -102.65 -83.1 -103.0 -77.5 -109.2 -70.8 -114.2 -63.25 -117.8 -55.1 -119.8 -46.65 -120.15 -38.35 -118.85 -30.35 -115.9 -23.2 -111.5 -17.0 -105.8 -16.95 -105.7 -16.85 -105.6 -12.1 -99.0 -12.8 -98.15 -18.4 -94.05 -25.1 -90.0 -60.85 -68.5" fill="url(#gradient1)" fill-rule="evenodd" stroke="none"/>
  </g>
  <defs>
    <radialGradient cx="0" cy="0" gradientTransform="matrix(0.0846, 0.0, 0.0, 0.0846, 57.55, -116.6)" gradientUnits="userSpaceOnUse" id="gradient0" r="819.2" spreadMethod="pad">
      <stop offset="0.0" stop-color="#ffffff"/>
      <stop offset="1.0" stop-color="#646464"/>
    </radialGradient>
    <radialGradient cx="0" cy="0" gradientTransform="matrix(0.0842, 0.0, 0.0, 0.0842, -54.75, -117.25)" gradientUnits="userSpaceOnUse" id="gradient1" r="819.2" spreadMethod="pad">
      <stop offset="0.0" stop-color="#ffffff"/>
      <stop offset="1.0" stop-color="#646464"/>
    </radialGradient>
  </defs>
</svg>
