<?xml version="1.0" encoding="UTF-8" standalone="no"?>
<svg xmlns:ffdec="https://www.free-decompiler.com/flash" xmlns:xlink="http://www.w3.org/1999/xlink" ffdec:objectType="shape" height="24.8px" width="48.15px" xmlns="http://www.w3.org/2000/svg">
  <g transform="matrix(1.0, 0.0, 0.0, 1.0, 24.2, 12.05)">
    <path d="M6.95 -8.15 L7.5 -7.9 9.4 -7.6 11.65 -8.3 14.8 -9.15 Q16.65 -9.75 18.15 -9.2 L17.55 -8.15 16.65 -4.4 Q14.5 -2.55 15.0 -2.15 15.45 -1.75 15.9 -1.75 L19.6 -1.6 Q14.55 -0.7 14.5 -0.3 13.85 0.45 14.2 1.15 L14.5 1.65 Q15.1 3.05 16.4 4.0 18.6 5.6 21.5 5.85 L22.65 6.45 23.55 7.15 20.85 7.9 Q24.3 9.3 23.9 9.6 L21.25 10.5 17.8 11.2 16.45 11.35 16.0 11.45 Q14.65 11.8 14.55 12.75 L14.3 12.55 13.1 11.35 Q11.45 10.35 9.75 11.05 9.5 11.35 9.55 11.8 9.55 12.35 9.4 12.2 9.25 12.0 8.35 11.65 L6.6 11.5 5.3 12.0 1.75 12.1 -0.15 11.7 -1.35 11.7 -3.7 12.1 -4.3 12.1 -4.35 12.1 Q-6.15 12.15 -6.65 12.7 -6.45 12.4 -7.9 11.1 -8.75 10.6 -9.45 10.6 L-10.45 10.65 -10.7 10.65 Q-12.9 10.9 -12.9 12.1 -13.0 11.25 -14.65 10.9 L-14.95 10.95 -17.4 11.45 -24.2 11.7 -18.9 9.25 -23.2 9.05 -21.75 8.1 Q-18.3 6.25 -17.15 2.6 -17.05 2.25 -19.25 1.65 L-17.15 0.95 Q-17.35 -0.75 -21.6 -2.0 -16.35 -0.75 -16.7 -1.75 L-18.8 -8.3 -18.55 -8.5 Q-15.3 -9.35 -12.1 -8.0 L-10.0 -7.35 -9.15 -7.35 -8.55 -7.55 -8.3 -7.8 -8.05 -8.65 Q-7.9 -9.35 -8.05 -10.65 -7.5 -9.4 -6.35 -9.0 L-4.6 -8.8 -3.3 -9.3 -2.35 -9.95 -1.7 -10.7 Q-1.45 -11.1 -1.35 -12.05 -0.85 -10.55 0.25 -10.05 1.35 -9.55 2.0 -9.5 L3.0 -9.45 4.35 -9.5 Q5.4 -9.6 5.95 -10.15 L7.15 -11.05 Q5.95 -9.3 6.55 -8.35 L6.95 -8.15 M7.25 -6.35 L4.8 -7.4 Q2.7 -8.35 -1.6 -8.15 -5.95 -7.9 -9.5 -5.4 -12.85 -8.15 -16.7 -7.35 -16.95 -6.2 -16.25 -5.0 L-15.15 -3.5 -15.0 -2.8 -15.4 -1.6 -15.45 -1.45 -15.45 -1.4 Q-15.65 -0.25 -15.3 0.85 L-15.35 0.8 -15.25 2.0 Q-15.05 5.05 -18.45 7.65 L-18.8 7.9 -18.65 8.1 -16.65 8.2 -18.45 10.15 -13.3 9.5 Q-10.45 9.2 -7.35 10.5 -4.4 11.75 -1.1 10.45 0.25 9.7 1.65 10.45 L2.35 10.8 Q3.0 11.1 4.9 10.8 L8.05 9.85 15.2 9.45 19.5 9.2 Q21.05 8.45 16.6 7.45 L20.5 7.05 15.2 5.35 13.75 3.6 Q12.8 2.45 12.9 1.1 L13.3 -0.85 13.3 -1.1 13.35 -1.4 13.25 -3.6 Q15.25 -4.65 15.95 -7.7 L14.25 -7.8 Q12.7 -7.5 11.0 -6.6 9.4 -5.8 7.7 -6.1 L7.25 -6.35 M-7.1 4.4 L-7.0 4.4 -4.9 4.9 -4.65 4.95 -4.2 6.15 -1.25 6.3 -0.45 6.45 2.1 6.1 2.25 6.1 2.35 5.8 2.35 4.85 Q2.95 4.7 3.5 4.35 L4.55 3.85 4.9 5.85 5.95 5.8 6.3 5.3 6.65 5.75 Q7.9 5.6 8.75 4.85 L8.5 4.5 Q8.3 4.15 8.7 4.25 L8.9 4.25 Q9.9 4.6 10.3 5.65 10.55 7.05 9.5 7.35 L9.75 6.3 9.05 5.75 Q7.85 5.45 7.8 6.45 L7.55 5.9 5.65 6.3 Q5.05 6.45 5.15 7.2 L5.1 7.25 Q4.45 7.55 4.6 6.6 L1.25 7.0 1.2 7.7 0.3 7.0 -3.25 7.05 -3.75 7.5 -3.8 7.4 Q-3.85 6.75 -5.0 6.9 L-4.7 6.95 -5.1 6.9 -5.65 7.0 Q-6.15 6.8 -6.35 7.25 L-6.55 7.65 -6.5 7.1 -5.95 6.85 -7.25 6.75 -8.95 6.8 -9.0 7.45 -9.2 7.4 -9.3 7.15 -9.45 6.9 Q-10.05 6.3 -11.35 6.6 L-11.7 7.55 -11.75 7.65 Q-12.7 7.05 -11.9 5.25 L-10.95 4.85 -10.8 6.1 -8.45 6.15 -8.45 6.0 -8.4 5.85 -8.3 5.85 -8.1 5.9 -8.1 6.15 -7.2 6.3 -7.1 4.4 M0.95 1.9 Q1.7 1.85 1.95 2.8 L2.0 3.1 Q2.0 3.8 1.3 4.25 L0.7 4.6 Q0.25 4.75 0.4 4.8 L-1.9 4.8 Q-1.75 4.75 -2.35 4.6 L-2.8 4.25 Q-3.65 3.7 -3.6 3.0 L-3.4 2.4 Q-3.25 2.15 -2.85 2.05 L-0.9 1.9 0.95 1.9" fill="#000000" fill-rule="evenodd" stroke="none"/>
    <path d="M7.25 -6.35 L7.7 -6.1 Q9.4 -5.8 11.0 -6.6 12.7 -7.5 14.25 -7.8 L15.95 -7.7 Q15.25 -4.65 13.25 -3.6 L13.35 -1.4 13.3 -1.1 13.3 -0.85 12.9 1.1 Q12.8 2.45 13.75 3.6 L15.2 5.35 20.5 7.05 16.6 7.45 Q21.05 8.45 19.5 9.2 L15.2 9.45 8.05 9.85 4.9 10.8 Q3.0 11.1 2.35 10.8 L1.65 10.45 Q0.25 9.7 -1.1 10.45 -4.4 11.75 -7.35 10.5 -10.45 9.2 -13.3 9.5 L-18.45 10.15 -16.65 8.2 -18.65 8.1 -18.8 7.9 -18.45 7.65 Q-15.05 5.05 -15.25 2.0 L-15.35 0.8 -15.3 0.85 Q-15.65 -0.25 -15.45 -1.4 L-15.45 -1.45 -15.4 -1.6 -15.0 -2.8 -15.15 -3.5 -16.25 -5.0 Q-16.95 -6.2 -16.7 -7.35 -12.85 -8.15 -9.5 -5.4 -5.95 -7.9 -1.6 -8.15 2.7 -8.35 4.8 -7.4 L7.25 -6.35 M-7.1 4.4 L-10.35 4.1 -12.15 4.35 -12.8 4.65 -13.45 5.1 -13.95 5.7 -14.0 6.95 Q-14.0 7.95 -12.7 8.25 L-9.6 8.7 Q-7.8 8.95 -5.6 8.65 L-2.3 8.2 0.5 8.25 3.65 8.7 Q5.15 8.9 6.8 8.7 L10.25 8.1 Q12.0 7.7 11.9 6.15 11.75 4.6 10.7 4.05 9.15 3.25 7.15 3.3 5.8 3.35 4.6 3.85 L4.55 3.85 3.5 4.35 Q2.95 4.7 2.35 4.85 L-0.1 5.25 -2.75 5.2 -4.65 4.95 -4.9 4.9 -7.0 4.4 -7.1 4.4 M0.95 1.9 L-0.9 1.9 -2.85 2.05 Q-3.25 2.15 -3.4 2.4 L-3.6 3.0 Q-3.65 3.7 -2.8 4.25 L-2.35 4.6 Q-1.75 4.75 -1.9 4.8 L0.4 4.8 Q0.25 4.75 0.7 4.6 L1.3 4.25 Q2.0 3.8 2.0 3.1 L1.95 2.8 Q1.7 1.85 0.95 1.9" fill="#33cccc" fill-rule="evenodd" stroke="none"/>
    <path d="M4.55 3.85 L4.6 3.85 Q5.8 3.35 7.15 3.3 9.15 3.25 10.7 4.05 11.75 4.6 11.9 6.15 12.0 7.7 10.25 8.1 L6.8 8.7 Q5.15 8.9 3.65 8.7 L0.5 8.25 -2.3 8.2 -5.6 8.65 Q-7.8 8.95 -9.6 8.7 L-12.7 8.25 Q-14.0 7.95 -14.0 6.95 L-13.95 5.7 -13.45 5.1 -12.8 4.65 -12.15 4.35 -10.35 4.1 -7.1 4.4 -7.2 6.3 -8.1 6.15 -8.1 5.9 -8.3 5.85 -8.4 5.85 -8.45 6.0 -8.45 6.15 -10.8 6.1 -10.95 4.85 -11.9 5.25 Q-12.7 7.05 -11.75 7.65 L-11.7 7.55 -11.35 6.6 Q-10.05 6.3 -9.45 6.9 L-9.3 7.15 -9.2 7.4 -9.0 7.45 -8.95 6.8 -7.25 6.75 -5.95 6.85 -6.5 7.1 -6.55 7.65 -6.35 7.25 Q-6.15 6.8 -5.65 7.0 L-5.1 6.9 -4.7 6.95 -5.0 6.9 Q-3.85 6.75 -3.8 7.4 L-3.75 7.5 -3.25 7.05 0.3 7.0 1.2 7.7 1.25 7.0 4.6 6.6 Q4.45 7.55 5.1 7.25 L5.15 7.2 Q5.05 6.45 5.65 6.3 L7.55 5.9 7.8 6.45 Q7.85 5.45 9.05 5.75 L9.75 6.3 9.5 7.35 Q10.55 7.05 10.3 5.65 9.9 4.6 8.9 4.25 L8.7 4.25 Q8.3 4.15 8.5 4.5 L8.75 4.85 Q7.9 5.6 6.65 5.75 L6.3 5.3 5.95 5.8 4.9 5.85 4.55 3.85 M-4.65 4.95 L-2.75 5.2 -0.1 5.25 2.35 4.85 2.35 5.8 2.25 6.1 2.1 6.1 -0.45 6.45 -1.25 6.3 -4.2 6.15 -4.65 4.95" fill="#ffffff" fill-rule="evenodd" stroke="none"/>
    <path d="M4.55 3.85 L4.6 3.85 Q5.8 3.35 7.15 3.3 9.15 3.25 10.7 4.05 11.75 4.6 11.9 6.15 12.0 7.7 10.25 8.1 L6.8 8.7 Q5.15 8.9 3.65 8.7 L0.5 8.25 -2.3 8.2 -5.6 8.65 Q-7.8 8.95 -9.6 8.7 L-12.7 8.25 Q-14.0 7.95 -14.0 6.95 L-13.95 5.7 -13.45 5.1 -12.8 4.65 -12.15 4.35 -10.35 4.1 -7.1 4.4 -7.0 4.4 -4.9 4.9 -4.65 4.95 -2.75 5.2 -0.1 5.25 2.35 4.85 Q2.95 4.7 3.5 4.35 L4.55 3.85 Z" ffdec:has-small-stroke="true" ffdec:original-stroke-width="0.05" fill="none" stroke="#000000" stroke-linecap="round" stroke-linejoin="round" stroke-width="1.0"/>
  </g>
</svg>
