<?xml version="1.0" encoding="UTF-8" standalone="no"?>
<svg xmlns:ffdec="https://www.free-decompiler.com/flash" xmlns:xlink="http://www.w3.org/1999/xlink" ffdec:objectType="shape" height="18.45px" width="26.4px" xmlns="http://www.w3.org/2000/svg">
  <g transform="matrix(1.0, 0.0, 0.0, 1.0, 13.2, 9.25)">
    <path d="M6.45 7.7 Q3.05 6.25 0.6 3.15 L-2.6 -0.2 -6.35 -0.45 Q-8.35 -0.65 -9.95 -1.85 L-10.1 -2.05 -10.2 -2.2 -10.35 -2.4 -10.5 -2.6 -11.3 -3.85 -11.35 -4.05 -11.35 -5.15 -11.35 -5.5 -11.2 -5.85 -10.6 -6.95 -10.35 -7.3 -8.5 -7.4 Q-5.35 -5.9 -1.8 -6.6 0.65 -7.1 2.3 -5.3 L5.65 -2.3 9.05 0.2 11.6 2.3 10.8 3.1 6.45 7.7" fill="#999966" fill-rule="evenodd" stroke="none"/>
    <path d="M11.6 2.3 L9.05 0.2 5.65 -2.3 2.3 -5.3 Q0.65 -7.1 -1.8 -6.6 -5.35 -5.9 -8.5 -7.4 L-10.35 -7.3 -10.6 -6.95 -11.2 -5.85 -11.35 -5.5 -11.35 -5.15 -11.35 -4.05 -11.3 -3.85 -10.5 -2.6 -10.35 -2.4 -10.2 -2.2 -10.1 -2.05 -9.95 -1.85 Q-8.35 -0.65 -6.35 -0.45 L-2.6 -0.2 0.6 3.15 Q3.05 6.25 6.45 7.7 L5.05 9.2 3.6 8.6 Q2.9 8.3 2.45 7.7 1.3 7.45 0.6 6.45 L-0.6 4.8 -3.5 1.75 Q-6.9 1.6 -9.95 0.25 -11.85 -0.6 -12.8 -2.5 L-13.15 -3.05 -13.2 -4.5 -13.2 -5.25 Q-13.15 -7.95 -10.9 -9.25 L-2.35 -8.5 0.8 -8.4 2.0 -8.25 4.7 -5.9 Q7.65 -2.7 11.55 -0.6 L12.25 0.15 13.2 0.85 11.6 2.3" fill="#000000" fill-rule="evenodd" stroke="none"/>
  </g>
</svg>
